<?xml version="1.0" encoding="UTF-8"?>
<svg xmlns="http://www.w3.org/2000/svg" width="45" height="45" viewBox="0 0 45 45">
  <g fill="#fff" fill-rule="evenodd" stroke="#000" stroke-width="1.5" stroke-linecap="round" stroke-linejoin="round">
    <path d="M9 26c8.5-1.5 21-1.5 27 0l2-12-7 11V11l-5.5 13.5-3-15-3 15-5.5-14V25L7 14l2 12z"/>
    <path d="M9 26c0 2 1.5 2 2.5 4 1 1.5 1 1 .5 3.5-1.5 1-1 2.5 0 2.5 1.5 0 6 -4.5 6-4.5 0 0 1.5-1.5 2.5-1.5s1 1.5 2.5 1.5 6 4.5 6 4.5c1.5 0 2.5-1.5 1-2.5-.5-2.5-.5-2 .5-3.5 1-2 2.5-2 2.5-4-8.5-1.5-18.5-1.5-27 0z" stroke-linecap="butt"/>
    <path d="M11.5 30c3.5-1 18.5-1 23 0" fill="none"/>
    <path d="M12 33.5c6-1 15-1 21 0" fill="none"/>
    <circle cx="6" cy="12" r="2"/>
    <circle cx="14" cy="9" r="2"/>
    <circle cx="22.5" cy="8" r="2"/>
    <circle cx="31" cy="9" r="2"/>
    <circle cx="39" cy="12" r="2"/>
  </g>
</svg> 